<svg width="46" height="46" viewBox="0 0 46 46" fill="none" xmlns="http://www.w3.org/2000/svg">
<path d="M22.1696 0.646416C22.0669 0.657341 21.7129 0.679195 21.3829 0.696674C19.604 0.795017 17.6788 1.17744 15.8234 1.80244C11.0026 3.42832 6.88768 6.6604 4.12762 10.9808C2.42745 13.6403 1.3195 16.6167 0.862764 19.7483C0.788464 20.2596 0.736016 20.736 0.677013 21.4156C0.62238 22.0385 0.620194 22.1237 0.628936 23.1093C0.635492 23.6796 0.650789 24.226 0.661715 24.3221C0.674827 24.4183 0.69668 24.6696 0.707607 24.8794C0.777537 26.0332 1.07474 27.6875 1.46591 29.0861C2.23077 31.8243 3.58567 34.4926 5.37762 36.7784C5.9611 37.5236 6.45061 38.0721 7.20018 38.8217C7.91696 39.5406 8.49607 40.0542 9.22378 40.6246C11.7063 42.5717 14.6455 43.9987 17.6766 44.733C18.8173 45.0105 20.229 45.2334 21.1425 45.2815C21.2933 45.288 21.514 45.3099 21.6342 45.3295C21.833 45.3623 22.9104 45.3667 33.6163 45.3711L45.3776 45.3776V43.5092V41.6407L40.4017 41.6364L35.4235 41.6298L35.4694 41.5861C35.5393 41.5205 35.7797 41.3413 36.1774 41.0573C37.1171 40.3929 38.1945 39.4554 39.0927 38.5201C40.0476 37.528 40.8693 36.5074 41.6167 35.3842C41.9598 34.8684 42.2177 34.4467 42.5892 33.7889C42.764 33.4808 43.3038 32.4012 43.4196 32.1237C43.9834 30.7906 44.2041 30.1853 44.5013 29.1407C44.757 28.2535 44.9231 27.5017 45.0717 26.5948C45.2312 25.618 45.2552 25.4082 45.2902 24.7242C45.3011 24.4882 45.3274 24.1342 45.3448 23.9375C45.3885 23.4611 45.3885 22.3619 45.3448 21.9554C45.3274 21.7915 45.3033 21.4637 45.2902 21.2299C45.2596 20.6661 45.2159 20.2705 45.1263 19.6892C44.8947 18.2251 44.6521 17.2155 44.2085 15.8868C43.3038 13.1683 41.8549 10.6158 39.9624 8.41739C39.6018 7.99781 38.9113 7.26355 38.6031 6.97071C38.4895 6.86145 38.3016 6.68444 38.1879 6.57517C37.788 6.19274 37.1849 5.68793 36.4834 5.14379C36.2299 4.94711 35.5503 4.47071 35.205 4.24563C33.0131 2.8208 30.6464 1.81119 28.0809 1.20367C26.9991 0.947987 25.6573 0.746937 24.7264 0.69886C24.5756 0.690121 24.2872 0.670452 24.0817 0.652969C23.6753 0.62019 22.4821 0.615818 22.1696 0.646416ZM23.5201 4.38112C24.5385 4.4729 25.524 4.85315 26.3545 5.47377C26.6167 5.67045 27.0691 6.10533 27.3094 6.39161C28.059 7.2854 28.4786 8.34528 28.5769 9.59965C28.6206 10.1503 28.5551 10.7906 28.3955 11.3938C28.0175 12.823 27.0428 14.0752 25.7316 14.816C25.1678 15.1351 24.4991 15.3667 23.8413 15.4738C23.5026 15.5284 22.6831 15.5393 22.3444 15.4956C21.479 15.382 20.7469 15.1241 20.0302 14.6805C18.8173 13.9309 17.9038 12.6656 17.5695 11.2758C17.2854 10.1023 17.3837 8.88724 17.8514 7.75961C18.2098 6.89642 18.8632 6.06162 19.6434 5.47159C20.2006 5.04982 20.9458 4.69362 21.6233 4.52316C21.8396 4.46853 22.3051 4.38767 22.4755 4.37456C22.6875 4.35708 23.3059 4.36145 23.5201 4.38112ZM11.2976 13.4174C11.9642 13.5114 12.5323 13.6884 13.1224 13.9878C14.757 14.8138 15.8868 16.4113 16.125 18.236C16.2517 19.1997 16.1359 20.1154 15.7732 21.0332C14.9427 23.1399 12.8601 24.5516 10.5874 24.5516C8.81075 24.5516 7.10402 23.6884 6.07037 22.2679C5.50656 21.4921 5.16346 20.6267 5.03234 19.6565C4.99082 19.3352 4.99738 18.5201 5.04546 18.2032C5.17876 17.3247 5.46285 16.573 5.92614 15.8802C6.1556 15.535 6.29983 15.3558 6.57736 15.0695C7.43619 14.1801 8.54196 13.6163 9.78759 13.4283C10.1307 13.3781 10.9764 13.3715 11.2976 13.4174ZM36.1272 13.4174C36.7697 13.5026 37.3553 13.6862 37.9541 13.9921C38.5332 14.2871 38.9047 14.5559 39.368 15.0214C40.382 16.0376 40.948 17.3422 41.0004 18.7823C41.066 20.583 40.2268 22.3378 38.7889 23.413C37.7356 24.2041 36.5249 24.5887 35.2378 24.545C34.4379 24.5166 33.7124 24.3418 33.0109 24.0031C32.4974 23.7561 32.2111 23.5704 31.774 23.2054C31.4834 22.9629 31.2823 22.7552 31.0507 22.4646C29.9799 21.1097 29.5887 19.4183 29.9624 17.7334C30.2443 16.4703 31.007 15.2837 32.0363 14.5101C32.8689 13.8851 33.7168 13.5485 34.8335 13.3999C35.0236 13.3737 35.889 13.3868 36.1272 13.4174ZM23.5026 21.208C24.3418 21.4462 24.91 22.2526 24.8488 23.1224C24.8116 23.649 24.5691 24.1167 24.1582 24.4445C23.5922 24.899 22.8164 24.9777 22.1565 24.6477C21.6757 24.4073 21.3326 23.979 21.1949 23.4436C21.1447 23.2513 21.1403 23.201 21.149 22.9454C21.1665 22.4974 21.2845 22.1761 21.5555 21.8374C21.8265 21.4965 22.2461 21.2386 22.6569 21.1643C22.8448 21.1316 23.3147 21.1556 23.5026 21.208ZM16.2714 28.0437C17.0844 28.1967 17.7618 28.4698 18.4327 28.9135C18.8195 29.1691 19.2194 29.5254 19.5712 29.9274C20.2727 30.7295 20.7251 31.7478 20.8693 32.8448C20.9087 33.1573 20.9152 33.9113 20.8802 34.2129C20.594 36.6036 18.7802 38.566 16.4222 39.0402C13.684 39.5887 10.9196 37.9956 10.0323 35.358C9.816 34.7177 9.74825 34.2893 9.74825 33.566C9.74825 32.941 9.77448 32.7247 9.90997 32.1871C10.0192 31.7609 10.1154 31.5009 10.3142 31.0966C10.6071 30.5022 10.9087 30.0826 11.3938 29.5997C12.2788 28.7168 13.3409 28.1879 14.5756 28.0153C14.9143 27.9694 15.9655 27.9869 16.2714 28.0437ZM31.3894 28.0153C33.212 28.2426 34.8466 29.4052 35.6726 31.066C36.2802 32.2898 36.42 33.6272 36.0791 34.9668C35.9786 35.3558 35.8802 35.6202 35.6748 36.0354C35.2334 36.9336 34.5538 37.6941 33.6993 38.2513C33.4152 38.4349 32.8864 38.7015 32.5826 38.8129C31.7107 39.1298 30.6705 39.226 29.7636 39.0708C29.1997 38.9747 28.7321 38.8239 28.212 38.5704C27.6307 38.2885 27.2504 38.0197 26.7872 37.5673C26.2823 37.0778 25.9655 36.6407 25.6552 36.0135C25.406 35.5087 25.2443 35.017 25.1504 34.4729C25.1023 34.191 25.0826 33.2666 25.1198 32.9366C25.323 31.066 26.4725 29.4183 28.1683 28.5616C28.7255 28.2819 29.2719 28.1115 29.9165 28.0153C30.2006 27.9738 31.0551 27.9738 31.3894 28.0153Z" fill="white"/>
</svg>
